<svg width="22" height="24" viewBox="0 0 22 24" fill="none" xmlns="http://www.w3.org/2000/svg">
<path d="M18.9075 4.80439C18.8904 4.68553 18.7883 4.62139 18.7012 4.61384C18.6161 4.60629 16.9455 4.58177 16.9455 4.58177C16.9455 4.58177 15.5492 3.22905 15.4111 3.09133C15.273 2.95361 15.0043 2.99511 14.8984 3.0253C14.8965 3.0253 14.6354 3.10642 14.1965 3.24226C14.1227 3.00454 14.0148 2.71212 13.8597 2.41969C13.3621 1.4726 12.6337 0.972644 11.7539 0.970758C11.752 0.970758 11.752 0.970758 11.7502 0.970758C11.6896 0.970758 11.6291 0.976419 11.5666 0.982078C11.5401 0.951892 11.5155 0.919819 11.4872 0.891519C11.1031 0.482121 10.6112 0.284025 10.0228 0.301005C8.88571 0.333078 7.75432 1.15188 6.83671 2.60647C6.18966 3.62902 5.69964 4.9157 5.55963 5.90996C4.25418 6.31369 3.34036 6.5948 3.32144 6.60046C2.66303 6.80611 2.64222 6.82686 2.55519 7.44567C2.48897 7.91356 0.765388 21.2068 0.765388 21.2068L15.2143 23.699L21.4768 22.1463C21.4787 22.1482 18.9226 4.92325 18.9075 4.80439ZM13.4718 3.46677C13.1389 3.56865 12.7605 3.68562 12.3499 3.81391C12.3423 3.24037 12.2723 2.44044 12.0037 1.75182C12.8683 1.91219 13.2921 2.88569 13.4718 3.46677ZM11.595 4.04597C10.8382 4.27991 10.0114 4.5346 9.18275 4.79118C9.41547 3.90069 9.85819 3.01398 10.4012 2.43478C10.6036 2.21971 10.8855 1.97822 11.2204 1.84049C11.5345 2.49327 11.6026 3.4196 11.595 4.04597ZM10.0474 1.05377C10.3141 1.04811 10.5393 1.10659 10.7304 1.233C10.4239 1.39148 10.1268 1.61976 9.84683 1.91785C9.1241 2.68948 8.57165 3.88937 8.35029 5.04588C7.66161 5.25907 6.98807 5.4666 6.3694 5.65715C6.76103 3.83844 8.29164 1.10471 10.0474 1.05377Z" fill="url(#paint0_linear_1_17)"/>
<path d="M18.6974 4.61397C18.6123 4.60643 16.9417 4.5819 16.9417 4.5819C16.9417 4.5819 15.5454 3.22919 15.4073 3.09146C15.3562 3.04053 15.2862 3.01411 15.2124 3.00279V23.6991L21.4729 22.1464C21.4729 22.1464 18.9188 4.92149 18.9017 4.80452C18.8866 4.68755 18.7825 4.62152 18.6974 4.61397Z" fill="url(#paint1_linear_1_17)" fill-opacity="0.18"/>
<path d="M11.7458 7.82472L11.0193 10.5377C11.0193 10.5377 10.2076 10.1698 9.24651 10.2302C7.837 10.3188 7.82186 11.2056 7.8351 11.4282C7.91268 12.6413 11.1139 12.9073 11.2936 15.7486C11.4355 17.9842 10.1036 19.5143 8.18701 19.635C5.88638 19.7803 4.61876 18.4257 4.61876 18.4257L5.10689 16.3561C5.10689 16.3561 6.38207 17.3164 7.40374 17.2503C8.06971 17.2088 8.3081 16.6674 8.28539 16.2844C8.18512 14.7015 5.57799 14.7939 5.41339 12.1942C5.27527 10.0057 6.71695 7.78698 9.89735 7.587C11.1177 7.51342 11.7458 7.82472 11.7458 7.82472Z" fill="white"/>
<defs>
<linearGradient id="paint0_linear_1_17" x1="25.3286" y1="27.9311" x2="2.62758" y2="-0.961172" gradientUnits="userSpaceOnUse">
<stop stop-color="#B292FB"/>
<stop offset="0.215" stop-color="#5D2DCE"/>
<stop offset="0.845952" stop-color="#DC68C7"/>
</linearGradient>
<linearGradient id="paint1_linear_1_17" x1="18.3427" y1="3.00279" x2="19.1374" y2="29.9948" gradientUnits="userSpaceOnUse">
<stop/>
<stop offset="1"/>
</linearGradient>
</defs>
</svg>
